<svg width="44" height="44" viewBox="0 0 44 44" fill="none" xmlns="http://www.w3.org/2000/svg">
<path d="M29.9515 10.8596C30.7326 10.0786 31.9989 10.0786 32.78 10.8596C33.561 11.6407 33.561 12.907 32.78 13.6881L13.6881 32.78C12.907 33.561 11.6407 33.561 10.8596 32.78C10.0786 31.9989 10.0786 30.7326 10.8596 29.9515L29.9515 10.8596Z" fill="black"/>
<path d="M32.8805 30.052C33.6615 30.8331 33.6615 32.0994 32.8805 32.8804C32.0994 33.6615 30.8331 33.6615 30.0521 32.8804L10.9602 13.7886C10.1791 13.0075 10.1791 11.7412 10.9602 10.9601C11.7412 10.1791 13.0076 10.1791 13.7886 10.9601L32.8805 30.052Z" fill="black"/>
</svg>
